<?xml version="1.0" standalone="no"?><!DOCTYPE svg PUBLIC "-//W3C//DTD SVG 1.1//EN" "http://www.w3.org/Graphics/SVG/1.1/DTD/svg11.dtd"><svg t="1560427276440" class="icon" style="" viewBox="0 0 1084 1024" version="1.1" xmlns="http://www.w3.org/2000/svg" p-id="1434" xmlns:xlink="http://www.w3.org/1999/xlink" width="211.71875" height="200"><defs><style type="text/css"></style></defs><path d="M1101.103 459.599l1.833 1.451q-0.904-0.764-1.833-1.451zM-16.383 461.687l3.31-2.622c-3.973 2.764-7.216 6.297-9.57 10.405z" p-id="1435"></path><path d="M100.029 1012.377c-0.294 1.961-0.598 3.908-0.866 5.881 0.551-2.092 0.876-4.497 0.894-6.975zM70.686 1040.383zM41.384 1008.827q0.318-2.202 0.661-4.405c-0.447 1.865-0.714 4.013-0.738 6.218z" p-id="1436"></path><path d="M1045.959 1001.99c0.37 2.304 0.7 4.621 1.031 6.937-0.090-2.781-0.541-5.423-1.307-7.927zM987.059 1017.126c-0.255-1.82-0.522-3.628-0.802-5.436 0.142 2.488 0.562 4.819 1.229 7.043z" p-id="1437"></path><path d="M1032.122 147.14h-214.314v-50.918c0-61.751-50.918-112.605-112.605-112.605h-334.2c-61.751 0-112.605 50.918-112.605 112.605v50.918h-203.417c-14.524 0-29.061 10.897-29.061 29.061 0 14.524 10.897 29.061 29.061 29.061h69.019v719.217c0 61.751 50.918 112.605 112.605 112.605h624.79c61.751 0 112.605-50.918 112.605-112.605v-719.217h58.123c14.524 0 29.061-10.897 29.061-29.061-3.641-14.537-10.897-29.061-29.061-29.061zM320.147 96.222c0-29.061 25.46-54.482 54.482-54.482h334.2c29.061 0 54.482 25.46 54.482 54.482v50.918h-443.165v-50.918zM915.888 913.533c0 32.69-18.165 65.38-47.226 65.38h-624.79c-29.061 0-61.751-21.793-61.751-50.918l3.628-722.871h730.126v708.474z" p-id="1438"></path><path d="M378.27 808.261c14.524 0 29.061-10.897 29.061-29.061v-388.682c-3.628-14.524-10.897-29.061-29.061-29.061s-29.061 10.897-29.061 29.061v388.682c0 18.152 14.537 29.061 29.061 29.061zM559.895 808.261c14.524 0 29.061-10.897 29.061-29.061v-388.682c-3.628-14.524-10.897-29.061-29.061-29.061s-29.074 10.897-29.074 29.061v388.682c0 18.152 14.55 29.061 29.074 29.061zM741.519 808.261c14.524 0 29.061-10.897 29.061-29.061v-388.682c-3.628-14.524-10.897-29.061-29.061-29.061s-29.061 10.897-29.061 29.061v388.682c0 18.152 14.537 29.061 29.061 29.061z" p-id="1439"></path></svg>